<svg xmlns="http://www.w3.org/2000/svg" style="display:none">

  <!-- UI chrome -->
  <symbol id="icon-close" viewBox="0 0 24 24" fill="none" stroke-linecap="round" stroke-linejoin="round" stroke-width="2">
    <path d="M6 18L18 6M6 6l12 12"/>
  </symbol>

  <symbol id="icon-chevron-right" viewBox="0 0 24 24" fill="none" stroke-linecap="round" stroke-linejoin="round" stroke-width="2">
    <path d="M9 5l7 7-7 7"/>
  </symbol>

  <symbol id="icon-bell" viewBox="0 0 24 24" fill="none" stroke-linecap="round" stroke-linejoin="round" stroke-width="1.5">
    <path d="M14.857 17.082a23.848 23.848 0 005.454-1.31A8.967 8.967 0 0118 9.75v-.7V9A6 6 0 006 9v.75a8.967 8.967 0 01-2.312 6.022c1.733.64 3.56 1.085 5.455 1.31m5.714 0a24.255 24.255 0 01-5.714 0m5.714 0a3 3 0 11-5.714 0"/>
  </symbol>

  <symbol id="icon-calibration" viewBox="0 0 24 24" fill="none" stroke-linecap="round" stroke-linejoin="round" stroke-width="1.5">
    <path d="M10.5 6h9.75M10.5 6a1.5 1.5 0 11-3 0m3 0a1.5 1.5 0 10-3 0M3.75 6H7.5m3 12h9.75m-9.75 0a1.5 1.5 0 01-3 0m3 0a1.5 1.5 0 00-3 0m-3.75 0H7.5m9-6h3.75m-3.75 0a1.5 1.5 0 01-3 0m3 0a1.5 1.5 0 00-3 0m-9.75 0h9.75"/>
  </symbol>

  <symbol id="icon-install" viewBox="0 0 24 24" fill="none" stroke-linecap="round" stroke-linejoin="round" stroke-width="1.5">
    <path d="M3 16.5v2.25A2.25 2.25 0 005.25 21h13.5A2.25 2.25 0 0021 18.75V16.5M16.5 12L12 16.5m0 0L7.5 12m4.5 4.5V3"/>
  </symbol>

  <symbol id="icon-trophy" viewBox="0 0 24 24" fill="none" stroke-linecap="round" stroke-linejoin="round" stroke-width="1.5">
    <path d="M16.5 18.75h-9m9 0a3 3 0 013 3h-15a3 3 0 013-3m9 0v-3.375c0-.621-.503-1.125-1.125-1.125h-.871M7.5 18.75v-3.375c0-.621.504-1.125 1.125-1.125h.872m5.007 0H9.497m5.007 0a7.454 7.454 0 01-.982-3.172M9.497 14.25a7.454 7.454 0 00.981-3.172M5.25 4.236c-.982.143-1.954.317-2.916.52A6.003 6.003 0 007.73 9.728M5.25 4.236V4.5c0 2.108.966 3.99 2.48 5.228M5.25 4.236V2.721C7.456 2.41 9.71 2.25 12 2.25c2.291 0 4.545.16 6.75.47v1.516M7.73 9.728a6.726 6.726 0 002.748 1.35m8.272-6.842V4.5c0 2.108-.966 3.99-2.48 5.228m2.48-5.492a46.32 46.32 0 012.916.52 6.003 6.003 0 01-5.395 4.972m0 0a6.726 6.726 0 01-2.749 1.35m0 0a6.772 6.772 0 01-3.044 0"/>
  </symbol>

  <!-- Game icons -->
  <symbol id="icon-hold" viewBox="0 0 24 24" fill="none" stroke-linecap="round" stroke-linejoin="round" stroke-width="1.5">
    <path d="M7.5 3.75H6C4.75736 3.75 3.75 4.75736 3.75 6V7.5M16.5 3.75H18C19.2426 3.75 20.25 4.75736 20.25 6V7.5M20.25 16.5V18C20.25 19.2426 19.2426 20.25 18 20.25H16.5M7.5 20.25H6C4.75736 20.25 3.75 19.2426 3.75 18V16.5M15 12C15 13.6569 13.6569 15 12 15C10.3431 15 9 13.6569 9 12C9 10.3431 10.3431 9 12 9C13.6569 9 15 10.3431 15 12Z"/>
  </symbol>

  <symbol id="icon-slalom" viewBox="0 0 24 24" fill="none" stroke-linecap="round" stroke-linejoin="round" stroke-width="1.5">
    <path d="M21 20H4C2 20 2 14 4 14H19C21 14 21 8 19 8H9V2M6 5L9 2L12 5"/>
  </symbol>

  <symbol id="icon-coin" viewBox="0 0 24 24" fill="none" stroke-linecap="round" stroke-linejoin="round" stroke-width="1.5">
    <path d="M19 7a3 3 0 11-6 0 3 3 0 016 0zM4.5 19.5L10.5 12.5M6 13L10.5 12.5L11 17"/>
  </symbol>

  <symbol id="icon-maze" viewBox="0 0 24 24" fill="none" stroke-linecap="round" stroke-linejoin="round" stroke-width="1.5">
    <path d="M6 21V3M18 21V3M12 3V19M9 16L12 19L15 16"/>
  </symbol>

  <symbol id="icon-test" viewBox="0 0 24 24" fill="none" stroke-linecap="round" stroke-linejoin="round" stroke-width="1.5">
    <path d="M11.42 15.17L17.25 21A2.652 2.652 0 0021 17.25l-5.877-5.877M11.42 15.17l2.496-3.03c.317-.384.74-.626 1.208-.766M11.42 15.17l-4.655 5.653a2.548 2.548 0 11-3.586-3.586l6.837-5.63m5.108-.233c.55-.164 1.163-.188 1.743-.14a4.5 4.5 0 004.486-6.336l-3.276 3.277a3.004 3.004 0 01-2.25-2.25l3.276-3.276a4.5 4.5 0 00-6.336 4.486c.091 1.076-.071 2.264-.904 2.95l-.102.085m-1.745 1.437L5.909 7.5H4.5L2.25 3.75l1.5-1.5L7.5 4.5v1.409l4.26 4.26m-1.745 1.437l1.745-1.437m6.615 8.206L15.75 15.75M4.867 19.125h.008v.008h-.008v-.008z"/>
  </symbol>

</svg>
