<?xml version="1.0" encoding="UTF-8"?>
<svg version="1.1" xmlns="http://www.w3.org/2000/svg" width="261" height="177">
<path d="M0 0 C0.96936493 0.31871063 0.96936493 0.31871063 1.95831299 0.64385986 C25.90823427 8.53592916 49.47778186 17.59722846 72 29 C71 32 71 32 68.80615234 33.82983398 C66 35 66 35 63.20556641 34.27758789 C62.18124512 33.76446045 61.15692383 33.25133301 60.1015625 32.72265625 C58.91973389 32.15297119 57.73790527 31.58328613 56.52026367 30.99633789 C55.88816986 30.68165558 55.25607605 30.36697327 54.60482788 30.04275513 C51.17010713 28.34215142 47.69496408 26.73020845 44.21484375 25.125 C43.47690079 24.78457169 42.73895782 24.44414337 41.97865295 24.09339905 C4.99307956 7.27193534 -38.01389642 -6.7820045 -79 -5 C-79.99 -4.505 -79.99 -4.505 -81 -4 C-80.66459536 1.06428168 -80.66459536 1.06428168 -78.09375 5.30078125 C-69.84531113 11.69829032 -61.10945101 16.92858423 -52 22 C-51.08806885 22.51578613 -51.08806885 22.51578613 -50.15771484 23.04199219 C-29.71246215 34.57580019 -7.80223189 43.41247738 14 52 C15.28771123 52.51224713 16.57530659 53.02478563 17.86279297 53.53759766 C35.372847 60.49193482 52.65245754 66.16715746 71.06689453 70.33007812 C74.37772298 71.086272 77.66920071 71.9037554 80.95922852 72.74511719 C82.85241329 73.22828467 84.75034989 73.69271702 86.6484375 74.15625 C88.79024353 74.69544592 90.92252917 75.27509867 93.0390625 75.90625 C100.40091334 77.96072 107.46333192 78.28189853 115.0625 78.3125 C116.58145874 78.32071777 116.58145874 78.32071777 118.13110352 78.32910156 C124.33535013 78.30743438 124.33535013 78.30743438 130 76 C129.37990311 70.18532092 126.34026253 68.06200149 122.07421875 64.3984375 C115.5877224 59.33781646 108.60851611 55.00617275 101.4375 50.984375 C100.344375 50.37078125 99.25125 49.7571875 98.125 49.125 C97.13757813 48.59132812 96.15015625 48.05765625 95.1328125 47.5078125 C94.42898437 47.01023438 93.72515625 46.51265625 93 46 C93 43 93 43 94.5 41.3125 C94.995 40.879375 95.49 40.44625 96 40 C101.09040613 41.447658 105.14198101 43.68591505 109.5625 46.5 C110.25778809 46.93997314 110.95307617 47.37994629 111.66943359 47.83325195 C133.39169965 61.78339931 133.39169965 61.78339931 138 71 C137.95336432 76.61959907 137.15102355 83.23777348 134 88 C129.40132432 91.89917833 125.54627257 92.64350297 119.6875 92.5 C118.86773682 92.48718994 118.04797363 92.47437988 117.20336914 92.46118164 C96.99717085 91.82791754 77.24752446 86.85247455 58 81 C57.2403595 80.7690564 56.48071899 80.53811279 55.69805908 80.3001709 C20.68279876 69.60414887 -12.77909754 56.89151558 -45.5625 40.5625 C-46.97171219 39.86241821 -46.97171219 39.86241821 -48.40939331 39.14819336 C-84.35795108 21.20575116 -84.35795108 21.20575116 -92.359375 8.921875 C-94.0265149 3.92045531 -91.7727 -1.30741904 -89.6875 -5.875 C-72.96839424 -26.92868874 -20.75024287 -6.85230302 0 0 Z " fill="#2E815F" transform="translate(107,47)"/>
<path d="M0 0 C2.475 1.485 2.475 1.485 5 3 C3.43035267 7.30387171 0.124306 9.64025 -3.3125 12.4375 C-20.88151409 26.25759343 -20.88151409 26.25759343 -30.5625 45.4375 C-29.91698177 48.37819416 -29.46300416 49.30137644 -27 51 C-9.88628299 59.01004717 18.72607643 48.70444029 35.39746094 42.79589844 C48.78838484 37.8636934 48.78838484 37.8636934 61.87890625 32.19921875 C68.27703144 29.74086527 72.75535312 31.42212552 78.8125 34 C86.46024555 37.11370761 94.19728266 39.80008871 102.0625 42.3125 C103.63124878 42.81813477 103.63124878 42.81813477 105.23168945 43.33398438 C111.11425785 45.19653901 116.95496075 46.76079841 123 48 C118.60002088 60.46660752 109.57972448 67.18504471 98.171875 72.65234375 C88.70702926 76.67373757 76.0009536 76.70118174 66.4375 72.9375 C60.18492769 69.86727139 54.58399154 65.99681859 50.01953125 60.703125 C46.64410271 56.53157131 46.64410271 56.53157131 41.83984375 54.765625 C39.09702456 55.26015667 36.62674035 56.06363195 34 57 C31.56496633 57.80067209 29.12900714 58.59461235 26.6875 59.375 C26.01348145 59.59075684 25.33946289 59.80651367 24.64501953 60.02880859 C11.68822745 64.0679464 -1.35643 66.33991549 -14.9375 66.5 C-15.8548291 66.51844971 -16.7721582 66.53689941 -17.71728516 66.5559082 C-23.2914164 66.50349829 -26.63854373 65.7919881 -31 62 C-35.90263428 56.1215987 -38.65211315 49.09185579 -38.43359375 41.41796875 C-35.5018557 25.06890702 -14.89951542 10.4659014 -1.984375 1.36328125 C-1.32953125 0.91339844 -0.6746875 0.46351562 0 0 Z " fill="#1F7467" transform="translate(50,86)"/>
<path d="M0 0 C0.99193359 -0.01023193 1.98386719 -0.02046387 3.00585938 -0.03100586 C10.45317102 0.05924546 17.44823832 0.76852889 23.0625 6 C24.1796875 7.5703125 24.1796875 7.5703125 25.3125 9.4375 C25.78945312 10.21867187 26.26640625 10.99984375 26.7578125 11.8046875 C28.88235282 15.62421627 30.2644018 18.53966693 30.5 22.9375 C25.24522186 38.42526716 11.07529683 50.88255667 -1.6875 60.4375 C-2.26113281 60.8701416 -2.83476562 61.3027832 -3.42578125 61.74853516 C-11.07299889 67.50206022 -18.83350923 73.06865912 -26.87792969 78.25683594 C-29.08136245 79.69447771 -31.26138713 81.1657154 -33.4453125 82.6328125 C-35.15037598 83.75621934 -36.85610675 84.87861404 -38.5625 86 C-39.37170898 86.54970459 -40.18091797 87.09940918 -41.01464844 87.66577148 C-46.8433781 91.44573534 -46.8433781 91.44573534 -50.890625 91.40625 C-51.81359375 91.0865625 -52.7365625 90.766875 -53.6875 90.4375 C-54.67492187 90.11652344 -55.66234375 89.79554687 -56.6796875 89.46484375 C-57.63101563 89.10519531 -58.58234375 88.74554688 -59.5625 88.375 C-60.52929688 88.01277344 -61.49609375 87.65054688 -62.4921875 87.27734375 C-63.57886719 86.86162109 -63.57886719 86.86162109 -64.6875 86.4375 C-62.08243885 83.47720324 -59.0592493 81.78629297 -55.6484375 79.84765625 C-54.42329509 79.14473004 -53.19836853 78.44142753 -51.97363281 77.73779297 C-51.01487244 77.18983063 -51.01487244 77.18983063 -50.03674316 76.63079834 C-38.13443476 69.81344634 -26.6458325 62.71284884 -15.6875 54.4375 C-14.80707031 53.78652344 -13.92664063 53.13554688 -13.01953125 52.46484375 C-8.11681956 48.76038518 -3.56783907 44.70977271 0.953125 40.55078125 C3.3125 38.4375 3.3125 38.4375 5.8125 36.55078125 C8.73716058 34.0785291 10.80210218 31.39968763 13.0625 28.3125 C14.23039062 26.73082031 14.23039062 26.73082031 15.421875 25.1171875 C18.06036373 21.37751133 18.71923752 19.00272984 18.66015625 14.34375 C18.46687429 12.17250155 18.46687429 12.17250155 16.125 10.5 C-10.24482975 0.53806432 -48.41773306 15.8145968 -72.890625 26.671875 C-75.48297099 27.8448938 -78.01580075 29.07394736 -80.55859375 30.35546875 C-84.41306871 31.68841452 -86.76600695 31.47045586 -90.6875 30.4375 C-92.625 28.875 -92.625 28.875 -93.6875 27.4375 C-74.27201665 17.11186812 -53.94085134 9.9949519 -32.6875 4.4375 C-31.39030029 4.0964624 -31.39030029 4.0964624 -30.06689453 3.74853516 C-20.04194396 1.20167699 -10.34832508 0.08158891 0 0 Z " fill="#17636A" transform="translate(211.6875,17.5625)"/>
<path d="M0 0 C2.475 1.485 2.475 1.485 5 3 C3.43035267 7.30387171 0.124306 9.64025 -3.3125 12.4375 C-20.88151409 26.25759343 -20.88151409 26.25759343 -30.5625 45.4375 C-29.91698177 48.37819416 -29.46300416 49.30137644 -27 51 C-12.27828518 57.89047447 9.70526103 50.38825158 24.4375 45.98828125 C28 45 28 45 31 45 C31 45.66 31 46.32 31 47 C32.485 47.495 32.485 47.495 34 48 C33.34 49.65 32.68 51.3 32 53 C32.556875 52.79375 33.11375 52.5875 33.6875 52.375 C36.659538 51.89304789 38.31979941 52.73434972 41 54 C24.45700948 62.7721911 3.32281715 66.39187636 -15.1875 66.5625 C-16.08927979 66.57708252 -16.99105957 66.59166504 -17.92016602 66.60668945 C-23.40772189 66.52034954 -26.70033646 65.70887008 -31 62 C-35.90263428 56.1215987 -38.65211315 49.09185579 -38.43359375 41.41796875 C-35.5018557 25.06890702 -14.89951542 10.4659014 -1.984375 1.36328125 C-1.32953125 0.91339844 -0.6746875 0.46351562 0 0 Z " fill="#2B7D64" transform="translate(50,86)"/>
<path d="M0 0 C5.09040613 1.447658 9.14198101 3.68591505 13.5625 6.5 C14.60543213 7.15995972 14.60543213 7.15995972 15.66943359 7.83325195 C37.39169965 21.78339931 37.39169965 21.78339931 42 31 C41.95336432 36.61959907 41.15102355 43.23777348 38 48 C33.39979344 51.90047635 29.54734437 52.64012807 23.6875 52.5 C22.48178345 52.48731079 22.48178345 52.48731079 21.25170898 52.47436523 C8.85666946 52.1293764 -4.00125765 50.1452335 -16 47 C-16 46.01 -16 45.02 -16 44 C-16.99 44 -17.98 44 -19 44 C-17.125 39.25 -17.125 39.25 -16 37 C-15.01 37 -14.02 37 -13 37 C-13 36.34 -13 35.68 -13 35 C-8.44700682 34.68234931 -4.89432764 35.26027578 -0.5 36.5 C6.03732488 38.11330474 12.34207053 38.30412041 19.0625 38.3125 C20.58037109 38.32023437 20.58037109 38.32023437 22.12890625 38.328125 C28.33437038 38.30793274 28.33437038 38.30793274 34 36 C33.37990311 30.18532092 30.34026253 28.06200149 26.07421875 24.3984375 C19.5877224 19.33781646 12.60851611 15.00617275 5.4375 10.984375 C4.344375 10.37078125 3.25125 9.7571875 2.125 9.125 C0.64386719 8.32449219 0.64386719 8.32449219 -0.8671875 7.5078125 C-1.57101563 7.01023437 -2.27484375 6.51265625 -3 6 C-3 3 -3 3 -1.5 1.3125 C-1.005 0.879375 -0.51 0.44625 0 0 Z " fill="#1A606A" transform="translate(203,87)"/>
<path d="M0 0 C3.37462715 0.54723683 5.08235 1.0549 8 3 C8.99 2.67 9.98 2.34 11 2 C16.57100255 2.45443223 21.46844002 4.62184964 26.625 6.625 C38.74779465 11.19461606 51.14434882 14.26014826 63.73925781 17.22509766 C68.83783388 18.43675387 73.9190318 19.71680511 79 21 C77.515 21.495 77.515 21.495 76 22 C76 22.66 76 23.32 76 24 C75.01 24 74.02 24 73 24 C72.5359375 25.175625 72.5359375 25.175625 72.0625 26.375 C71 29 71 29 70 31 C70.99 31 71.98 31 73 31 C73 31.66 73 32.32 73 33 C58.91183462 30.80946209 45.37169407 26.36654032 31.86083984 21.93652344 C28.97902429 20.9931334 26.09328015 20.06253878 23.20703125 19.1328125 C21.34610706 18.52679995 19.48542105 17.92005539 17.625 17.3125 C16.77591064 17.03946045 15.92682129 16.7664209 15.05200195 16.48510742 C9.76225178 14.73801947 4.85276909 12.75575801 0 10 C-0.875 7.3125 -0.875 7.3125 -1 5 C-1.66 4.67 -2.32 4.34 -3 4 C-2.01 2.68 -1.02 1.36 0 0 Z " fill="#24766C" transform="translate(114,100)"/>
<path d="M0 0 C0.74950928 0.17829346 1.49901855 0.35658691 2.27124023 0.5402832 C4.5355791 1.11426958 6.76426511 1.7612592 9 2.4375 C9.76183594 2.65470703 10.52367187 2.87191406 11.30859375 3.09570312 C13.22642249 3.66489828 15.11670023 4.32529104 17 5 C17.495 5.99 17.495 5.99 18 7 C13.27408875 14.08886687 5.94145152 17.35284949 -2 20 C-12.30302778 20.72629602 -21.19995335 21.13956743 -30 15 C-30.99 14.34 -31.98 13.68 -33 13 C-33 12.01 -33 11.02 -33 10 C-29.20410353 8.11037314 -25.38620731 6.27011162 -21.5625 4.4375 C-20.49322266 3.90447266 -19.42394531 3.37144531 -18.32226562 2.82226562 C-11.71163275 -0.31121479 -7.14247123 -1.8980509 0 0 Z " fill="#FBFCFC" transform="translate(142,133)"/>
<path d="M0 0 C0 0.33 0 0.66 0 1 C-2.31 1 -4.62 1 -7 1 C-7.33 1.99 -7.66 2.98 -8 4 C-11.0625 5.6875 -11.0625 5.6875 -14 7 C-12.68 7.66 -11.36 8.32 -10 9 C-10.53963379 9.09909668 -11.07926758 9.19819336 -11.63525391 9.30029297 C-24.17480035 11.66698526 -36.34421233 14.82432557 -48.4375 18.875 C-49.40252945 19.19807632 -49.40252945 19.19807632 -50.38705444 19.52767944 C-59.14849421 22.48475005 -67.61290419 25.75599153 -75.87109375 29.91796875 C-79.72556871 31.25091452 -82.07850695 31.03295586 -86 30 C-87.9375 28.4375 -87.9375 28.4375 -89 27 C-66.36880627 14.9641742 -42.10382123 6.70933817 -17 1.5625 C-16.20585693 1.3984668 -15.41171387 1.23443359 -14.59350586 1.06542969 C-9.6498782 0.11935174 -5.03241962 -0.14296647 0 0 Z " fill="#21706C" transform="translate(207,18)"/>
<path d="M0 0 C7.25320991 0.5069047 13.38631871 2.23128764 20.1875 4.75 C21.77848511 5.33031982 21.77848511 5.33031982 23.40161133 5.92236328 C39.18465594 11.79411649 54.98238019 18.37802728 70 26 C69 29 69 29 66.81933594 30.83422852 C64 32 64 32 61.11035156 31.24584961 C60.0478418 30.71999268 58.98533203 30.19413574 57.890625 29.65234375 C57.29849213 29.36971176 56.70635925 29.08707977 56.09628296 28.79588318 C54.81170176 28.18189089 53.53145276 27.5587705 52.25518799 26.92767334 C48.83133013 25.23695267 45.37577291 23.61543038 41.9140625 22.00390625 C41.19475555 21.66858887 40.47544861 21.33327148 39.73434448 20.98779297 C30.17223557 16.60527505 20.21693677 13.24583666 10.25097656 9.90991211 C9.57048248 9.6754689 8.8899884 9.4410257 8.18887329 9.19947815 C6.34713669 8.56497682 4.49918781 7.94858947 2.65087891 7.33349609 C0 6 0 6 -0.95166016 3.96728516 C-1 2 -1 2 0 0 Z " fill="#27766F" transform="translate(109,50)"/>
<path d="M0 0 C0.78697266 0.28343262 1.57394531 0.56686523 2.38476562 0.85888672 C7.90701499 2.98960408 13.38721712 5.21679918 18.859375 7.47265625 C21.24997507 8.4531858 23.64059913 9.43365684 26.03125 10.4140625 C27.07893555 10.84533447 28.12662109 11.27660645 29.20605469 11.72094727 C31.8351749 12.79784304 34.4697377 13.85934716 37.109375 14.91015625 C36.449375 15.57015625 35.789375 16.23015625 35.109375 16.91015625 C31.109375 16.91015625 31.109375 16.91015625 29.046875 15.84765625 C26.97527325 14.56715421 26.97527325 14.56715421 24.109375 15.91015625 C24.604375 19.87015625 24.604375 19.87015625 25.109375 23.91015625 C17.78512985 21.58914677 10.74852797 18.77068644 3.671875 15.78515625 C2.58455078 15.33011719 1.49722656 14.87507813 0.37695312 14.40625 C-7.5363779 11.0872798 -7.5363779 11.0872798 -9.890625 9.91015625 C-9.560625 8.59015625 -9.230625 7.27015625 -8.890625 5.91015625 C-10.210625 5.91015625 -11.530625 5.91015625 -12.890625 5.91015625 C-11.52078997 2.74899849 -10.9015612 1.91744705 -7.890625 -0.08984375 C-4.81372824 -1.18669331 -3.05215146 -1.1010973 0 0 Z " fill="#287A64" transform="translate(88.890625,86.08984375)"/>
<path d="M0 0 C1.01320312 0.20971436 2.02640625 0.41942871 3.0703125 0.63549805 C14.93091424 3.2127443 26.40267832 7.0114491 37.875 10.9375 C36.9159375 11.865625 36.9159375 11.865625 35.9375 12.8125 C33.83616416 14.76347612 33.83616416 14.76347612 32.875 16.9375 C31.96363281 16.70675781 31.05226562 16.47601563 30.11328125 16.23828125 C-0.65703197 8.0884645 -0.65703197 8.0884645 -32.125 3.9375 C-32.125 3.6075 -32.125 3.2775 -32.125 2.9375 C-29.155 2.9375 -26.185 2.9375 -23.125 2.9375 C-23.455 1.2875 -23.785 -0.3625 -24.125 -2.0625 C-17.81925385 -5.21537307 -6.66197102 -1.38809818 0 0 Z " fill="#377E6D" transform="translate(75.125,38.0625)"/>
<path d="M0 0 C2.64 0.33 5.28 0.66 8 1 C8.31470306 4.09277146 8.27534991 5.58770357 6.5234375 8.2109375 C-0.56573069 15.35166327 -10.67104403 22.55111677 -21.10644531 23.11352539 C-21.83959961 23.10828857 -22.57275391 23.10305176 -23.328125 23.09765625 C-24.12734375 23.09443359 -24.9265625 23.09121094 -25.75 23.08789062 C-26.575 23.07951172 -27.4 23.07113281 -28.25 23.0625 C-29.09046875 23.05798828 -29.9309375 23.05347656 -30.796875 23.04882812 C-32.86461401 23.03707961 -34.93231624 23.01914522 -37 23 C-37 19 -37 19 -35.8046875 17.2734375 C-33.46084765 15.61955916 -31.97923427 15.66734769 -29.125 15.625 C-19.33425984 14.96363874 -8.964964 11.14777146 -2 4 C-0.79953632 1.90840891 -0.79953632 1.90840891 0 0 Z " fill="#176261" transform="translate(160,138)"/>
<path d="M0 0 C2.475 1.485 2.475 1.485 5 3 C3.42818336 7.32759907 0.07784129 9.68793967 -3.375 12.5 C-10.32518857 18.2915216 -16.71123442 24.50391248 -23 31 C-23.99 30.67 -24.98 30.34 -26 30 C-28.3406065 30.27769908 -30.67624308 30.60539977 -33 31 C-24.2488425 18.40519686 -12.56257447 8.65421797 0 0 Z " fill="#31856B" transform="translate(50,86)"/>
<path d="M0 0 C8.96452064 0.43098657 17.37352947 2.69889434 26 5 C25.01 5.33 24.02 5.66 23 6 C23 6.66 23 7.32 23 8 C22.01 8 21.02 8 20 8 C19.690625 8.78375 19.38125 9.5675 19.0625 10.375 C18 13 18 13 17 15 C17.99 15 18.98 15 20 15 C20 15.66 20 16.32 20 17 C15.88638836 16.35436589 11.85716797 15.55188012 7.8125 14.5625 C6.78769531 14.31628906 5.76289063 14.07007813 4.70703125 13.81640625 C2 13 2 13 -1 11 C-1.78561862 8.21462489 -2 5.8996083 -2 3 C-1.34 2.01 -0.68 1.02 0 0 Z " fill="#226F6C" transform="translate(167,116)"/>
<path d="M0 0 C1.42699219 0.8353125 1.42699219 0.8353125 2.8828125 1.6875 C3.84960938 2.244375 4.81640625 2.80125 5.8125 3.375 C6.53695312 3.808125 7.26140625 4.24125 8.0078125 4.6875 C7.8221875 5.615625 7.6365625 6.54375 7.4453125 7.5 C6.76657369 10.70093771 6.76657369 10.70093771 8.0078125 13.6875 C5.0078125 15.6875 5.0078125 15.6875 2.21875 15.50390625 C-1.29199003 14.61127284 -4.15906735 13.30035164 -7.3671875 11.625 C-8.42679688 11.07714844 -9.48640625 10.52929688 -10.578125 9.96484375 C-11.37476563 9.54332031 -12.17140625 9.12179688 -12.9921875 8.6875 C-12.6621875 5.7175 -12.3321875 2.7475 -11.9921875 -0.3125 C-7.52927383 -1.80013789 -4.34955369 -1.90789822 0 0 Z " fill="#2D7A59" transform="translate(55.9921875,69.3125)"/>
<path d="M0 0 C-0.99 0.66 -1.98 1.32 -3 2 C-3.99 1.67 -4.98 1.34 -6 1 C-6 1.66 -6 2.32 -6 3 C-6.66 3 -7.32 3 -8 3 C-8 3.99 -8 4.98 -8 6 C-7.01 6.33 -6.02 6.66 -5 7 C-9.8289054 6.5250257 -14.54924031 5.92772791 -19.3125 5 C-25.17961483 3.88641163 -31.04639357 3.39482905 -37 3 C-37 2.67 -37 2.34 -37 2 C-34.03 2 -31.06 2 -28 2 C-28.33 0.35 -28.66 -1.3 -29 -3 C-21.68025096 -6.65987452 -7.85396928 -1.56685209 0 0 Z " fill="#3F8B6E" transform="translate(80,39)"/>
<path d="M0 0 C-0.33 1.65 -0.66 3.3 -1 5 C-0.67 4.67 -0.34 4.34 0 4 C0.99 4 1.98 4 3 4 C2.67 4.66 2.34 5.32 2 6 C2.66 6 3.32 6 4 6 C4.33 5.34 4.66 4.68 5 4 C5.99 4.66 6.98 5.32 8 6 C4.84147559 7.04727645 1.67229668 8.05779087 -1.5 9.0625 C-2.386875 9.35705078 -3.27375 9.65160156 -4.1875 9.95507812 C-9.95805049 11.75837515 -14.06072278 12.21422139 -20 11 C-20.33 10.01 -20.66 9.02 -21 8 C-21.66 7.67 -22.32 7.34 -23 7 C-19.7318568 5.82569926 -16.46007485 4.66188744 -13.1875 3.5 C-12.25873047 3.16613281 -11.32996094 2.83226562 -10.37304688 2.48828125 C-9.48037109 2.17246094 -8.58769531 1.85664063 -7.66796875 1.53125 C-6.84578857 1.23798828 -6.0236084 0.94472656 -5.17651367 0.64257812 C-3 0 -3 0 0 0 Z " fill="#307E77" transform="translate(164,27)"/>
<path d="M0 0 C2.625 1.4375 2.625 1.4375 5 3 C3.68059245 5.98381068 2.33812674 7.84788458 -0.15234375 9.9453125 C-0.76400391 10.46480469 -1.37566406 10.98429687 -2.00585938 11.51953125 C-2.64330078 12.04933594 -3.28074219 12.57914063 -3.9375 13.125 C-4.88786133 13.93130859 -4.88786133 13.93130859 -5.85742188 14.75390625 C-8.5135566 16.99388527 -11.1032458 19.06883053 -14 21 C-14 18 -14 18 -12.5625 16.375 C-12.046875 15.92125 -11.53125 15.4675 -11 15 C-10.67 14.67 -10.34 14.34 -10 14 C-10.33 13.34 -10.66 12.68 -11 12 C-11.99 11.67 -12.98 11.34 -14 11 C-12.04364894 9.35175927 -10.08504561 7.70633688 -8.125 6.0625 C-7.56941406 5.59392578 -7.01382813 5.12535156 -6.44140625 4.64257812 C-2.2265625 1.11328125 -2.2265625 1.11328125 0 0 Z " fill="#358668" transform="translate(50,86)"/>
<path d="M0 0 C0.62003906 0.34933594 1.24007812 0.69867188 1.87890625 1.05859375 C10.03485934 5.24935276 16.96861645 5.86593088 26 6 C26 6.33 26 6.66 26 7 C25.25234375 7.01417969 24.5046875 7.02835938 23.734375 7.04296875 C17.40090569 7.18275622 17.40090569 7.18275622 12.3125 10.5625 C11.6628125 11.7690625 11.6628125 11.7690625 11 13 C4.65660349 11.19389405 -0.56938255 8.74372266 -6 5 C-2.25 2 -2.25 2 0 2 C0 1.34 0 0.68 0 0 Z " fill="#257771" transform="translate(111,147)"/>
<path d="M0 0 C6.6 1.65 13.2 3.3 20 5 C18.47426795 8.81433013 17.47253678 10.96552304 15 14 C14.67 13.01 14.34 12.02 14 11 C12.845 10.87625 11.69 10.7525 10.5 10.625 C6.21649625 10.09721115 2.16647328 9.11601963 -2 8 C-1.01 7.67 -0.02 7.34 1 7 C0.67 4.69 0.34 2.38 0 0 Z " fill="#236E6E" transform="translate(153,129)"/>
<path d="M0 0 C2.64 0.33 5.28 0.66 8 1 C8.4375 3.0625 8.4375 3.0625 8 6 C6.01044154 8.79114869 3.80004167 11.02152744 1 13 C-2.4375 13.4375 -2.4375 13.4375 -5 13 C-5.33 13.66 -5.66 14.32 -6 15 C-6.99 14.34 -7.98 13.68 -9 13 C-8.875 11.3125 -8.875 11.3125 -8 9 C-6.01739574 7.31267723 -4.0167658 5.64633943 -2 4 C-0.62745412 1.85019503 -0.62745412 1.85019503 0 0 Z " fill="#186265" transform="translate(160,138)"/>
<path d="M0 0 C0.69287109 0.00451172 1.38574219 0.00902344 2.09960938 0.01367188 C3.79561068 0.02536844 5.49156703 0.04330076 7.1875 0.0625 C6.8575 2.0425 6.5275 4.0225 6.1875 6.0625 C-0.5810324 6.16402799 -7.11574864 6.09276944 -13.8125 5.0625 C-13.4825 3.7425 -13.1525 2.4225 -12.8125 1.0625 C-8.52952469 0.00630997 -4.38264354 -0.05452092 0 0 Z " fill="#287C59" transform="translate(45.8125,34.9375)"/>
<path d="M0 0 C0.99 0.99 1.98 1.98 3 3 C6.62535976 3.2503577 6.62535976 3.2503577 10 3 C6.66463131 6.89126347 2.73789501 9.17099741 -2 11 C-2.99 11 -3.98 11 -5 11 C-5 10.01 -5 9.02 -5 8 C-5.99 8 -6.98 8 -8 8 C-8 7.01 -8 6.02 -8 5 C-8.66 4.67 -9.32 4.34 -10 4 C-6.7 2.68 -3.4 1.36 0 0 Z " fill="#1F7177" transform="translate(150,148)"/>
<path d="M0 0 C0 0.33 0 0.66 0 1 C-2.31 1 -4.62 1 -7 1 C-7.33 1.99 -7.66 2.98 -8 4 C-11.0625 5.6875 -11.0625 5.6875 -14 7 C-12.68 7.66 -11.36 8.32 -10 9 C-12.64 9.33 -15.28 9.66 -18 10 C-17.34 9.67 -16.68 9.34 -16 9 C-16.804375 8.87625 -17.60875 8.7525 -18.4375 8.625 C-19.283125 8.41875 -20.12875 8.2125 -21 8 C-21.33 7.34 -21.66 6.68 -22 6 C-23.65 6 -25.3 6 -27 6 C-27.33 5.34 -27.66 4.68 -28 4 C-24.83601018 3.32019419 -21.66846323 2.65861314 -18.5 2 C-17.613125 1.80921875 -16.72625 1.6184375 -15.8125 1.421875 C-10.422217 0.31211085 -5.50240809 -0.2056975 0 0 Z " fill="#317A7D" transform="translate(207,18)"/>
<path d="M0 0 C8.58 0 17.16 0 26 0 C26 0.33 26 0.66 26 1 C25.04738281 1.06058594 24.09476563 1.12117188 23.11328125 1.18359375 C21.85902344 1.26738281 20.60476562 1.35117187 19.3125 1.4375 C18.07113281 1.51871094 16.82976563 1.59992187 15.55078125 1.68359375 C12.61819663 1.94491317 9.86558383 2.34798379 7 3 C6.67 3.99 6.34 4.98 6 6 C8.64 6 11.28 6 14 6 C14 6.33 14 6.66 14 7 C13.15695313 7.06058594 12.31390625 7.12117188 11.4453125 7.18359375 C10.34960938 7.26738281 9.25390625 7.35117187 8.125 7.4375 C6.48917969 7.55931641 6.48917969 7.55931641 4.8203125 7.68359375 C2.05271029 7.83001703 2.05271029 7.83001703 0 9 C-1.13350534 11.01669827 -1.13350534 11.01669827 -2 13 C-2.66 11.02 -3.32 9.04 -4 7 C-3.21625 6.731875 -2.4325 6.46375 -1.625 6.1875 C1.28114923 5.15185568 1.28114923 5.15185568 3 2 C2.01 2 1.02 2 0 2 C0 1.34 0 0.68 0 0 Z " fill="#3C8869" transform="translate(26,34)"/>
<path d="M0 0 C8.68965517 3.37931034 8.68965517 3.37931034 10 6 C10.04022391 8.3329866 10.04320247 10.66706666 10 13 C7.25 12.875 7.25 12.875 4 12 C1.10771594 8.56052707 -0.61328856 5.5116335 -1 1 C-0.67 0.67 -0.34 0.34 0 0 Z " fill="#145460" transform="translate(234,110)"/>
<path d="M0 0 C1.43655854 -0.08131463 2.8744483 -0.13933559 4.3125 -0.1875 C5.51326172 -0.23970703 5.51326172 -0.23970703 6.73828125 -0.29296875 C9.47851584 0.06198392 10.29171079 0.89366282 12 3 C11.34 4.32 10.68 5.64 10 7 C5.45194365 7.17835515 2.1205746 6.99785435 -2 5 C-2 4.01 -2 3.02 -2 2 C-1.34 2 -0.68 2 0 2 C0 1.34 0 0.68 0 0 Z " fill="#2B7F5F" transform="translate(74,40)"/>
<path d="M0 0 C1.65 0 3.3 0 5 0 C5 0.66 5 1.32 5 2 C5.66 2 6.32 2 7 2 C7.33 2.66 7.66 3.32 8 4 C10.12576782 4.46651207 10.12576782 4.46651207 12.5625 4.625 C13.38878906 4.69976563 14.21507812 4.77453125 15.06640625 4.8515625 C15.70449219 4.90054687 16.34257812 4.94953125 17 5 C17 5.33 17 5.66 17 6 C9.08 6.33 1.16 6.66 -7 7 C-7.33 6.34 -7.66 5.68 -8 5 C-6.865625 4.54625 -5.73125 4.0925 -4.5625 3.625 C-0.95278308 2.42904194 -0.95278308 2.42904194 0 0 Z " fill="#1A6F74" transform="translate(200,19)"/>
<path d="M0 0 C1.2684375 0.433125 1.2684375 0.433125 2.5625 0.875 C2.5625 2.875 2.5625 2.875 0.375 5.25 C-6.72321429 11.875 -6.72321429 11.875 -9.4375 11.875 C-10.375 9.25 -10.375 9.25 -10.4375 5.875 C-7.5968301 1.95175773 -4.89173535 -0.17788129 0 0 Z " fill="#2A7A60" transform="translate(38.4375,98.125)"/>
<path d="M0 0 C4.50802601 1.25805377 7.4912812 2.90407165 11 6 C10.21625 6.28875 9.4325 6.5775 8.625 6.875 C5.90328368 7.84912254 5.90328368 7.84912254 4 10 C1.36 8.35 -1.28 6.7 -4 5 C-2.68 3.35 -1.36 1.7 0 0 Z " fill="#1D6A6D" transform="translate(203,87)"/>
<path d="M0 0 C1.32 0 2.64 0 4 0 C3.67 1.32 3.34 2.64 3 4 C3.66 4 4.32 4 5 4 C5 4.99 5 5.98 5 7 C4.01 7.33 3.02 7.66 2 8 C1.67 8.99 1.34 9.98 1 11 C-0.32 11 -1.64 11 -3 11 C-3 10.34 -3 9.68 -3 9 C-3.99 9 -4.98 9 -6 9 C-4.125 4.25 -4.125 4.25 -3 2 C-2.01 2 -1.02 2 0 2 C0 1.34 0 0.68 0 0 Z " fill="#155C63" transform="translate(190,122)"/>
<path d="M0 0 C1.65 0 3.3 0 5 0 C6.83691257 3.78187881 7.15837626 5.94568308 6 10 C4.33388095 10.042721 2.66617115 10.04063832 1 10 C0 9 0 9 -0.09765625 6.93359375 C-0.08605469 6.10988281 -0.07445312 5.28617188 -0.0625 4.4375 C-0.05347656 3.61121094 -0.04445313 2.78492187 -0.03515625 1.93359375 C-0.02355469 1.29550781 -0.01195312 0.65742187 0 0 Z " fill="#2C785F" transform="translate(12,125)"/>
<path d="M0 0 C0.66 0.33 1.32 0.66 2 1 C1.01 2.485 1.01 2.485 0 4 C0.33 4.66 0.66 5.32 1 6 C0.67 6.99 0.34 7.98 0 9 C-4.41062136 10.0257259 -6.92630576 10.03684712 -11 8 C-8.83385197 5.69125289 -6.60793392 3.94709819 -3.9375 2.25 C-2.89916016 1.57710938 -2.89916016 1.57710938 -1.83984375 0.890625 C-1.23269531 0.59671875 -0.62554687 0.3028125 0 0 Z " fill="#186D6C" transform="translate(158,96)"/>
<path d="M0 0 C3.3125 2 3.3125 2 6 4 C4 4.66666667 2 5.33333333 0 6 C0 6.99 0 7.98 0 9 C-2.64 7.35 -5.28 5.7 -8 4 C-7.67 3.01 -7.34 2.02 -7 1 C-4.37310841 -0.31344579 -2.93059745 -0.33302244 0 0 Z " fill="#165B62" transform="translate(216,93)"/>
<path d="M0 0 C5.54166667 0.48188406 5.54166667 0.48188406 7.4375 2.625 C8.22069737 5.93183335 7.63559393 8.69491155 7 12 C5.125 12.625 5.125 12.625 3 13 C2.34 12.34 1.68 11.68 1 11 C1 10.01 1 9.02 1 8 C1.99 8 2.98 8 4 8 C3.67 7.01 3.34 6.02 3 5 C2.34 4.67 1.68 4.34 1 4 C0.375 1.9375 0.375 1.9375 0 0 Z " fill="#1B6E63" transform="translate(136,106)"/>
<path d="M0 0 C4.23429756 1.31061591 8.07407404 2.94356259 12 5 C12 5.66 12 6.32 12 7 C11.071875 7.28875 10.14375 7.5775 9.1875 7.875 C5.90208333 8.8875 5.90208333 8.8875 3 11 C2.814375 9.948125 2.814375 9.948125 2.625 8.875 C1.96161655 5.82343613 1.02788045 2.94659062 0 0 Z " fill="#368669" transform="translate(73,79)"/>
<path d="M0 0 C0 0.66 0 1.32 0 2 C-0.99 2.495 -0.99 2.495 -2 3 C-2 3.66 -2 4.32 -2 5 C-1.01 5.33 -0.02 5.66 1 6 C1 6.66 1 7.32 1 8 C-5.27692308 9.35384615 -5.27692308 9.35384615 -8.9375 7.5625 C-9.618125 7.046875 -10.29875 6.53125 -11 6 C-3.8 0 -3.8 0 0 0 Z " fill="#328279" transform="translate(129,40)"/>
<path d="M0 0 C5.66710699 1.31793186 7.66437233 3.48709197 11 8 C10.01 8.495 10.01 8.495 9 9 C8.01 8.34 7.02 7.68 6 7 C6 6.34 6 5.68 6 5 C4.68 5 3.36 5 2 5 C2 5.99 2 6.98 2 8 C-0.64 7.67 -3.28 7.34 -6 7 C-6 6.67 -6 6.34 -6 6 C-4.02 6 -2.04 6 0 6 C-0.33 5.01 -0.66 4.02 -1 3 C-0.67 2.01 -0.34 1.02 0 0 Z " fill="#2D6D76" transform="translate(226,19)"/>
<path d="M0 0 C2.97 0.99 5.94 1.98 9 3 C9 5 9 5 7 7.125 C6.34 7.74375 5.68 8.3625 5 9 C2.69 8.34 0.38 7.68 -2 7 C-1.34 6.34 -0.68 5.68 0 5 C0.16687448 2.41645782 0.16687448 2.41645782 0 0 Z " fill="#2B7E76" transform="translate(141,60)"/>
<path d="M0 0 C4 0 4 0 5.5625 1.375 C6.036875 1.91125 6.51125 2.4475 7 3 C7.99 3.66 8.98 4.32 10 5 C9.67 5.99 9.34 6.98 9 8 C7.35 7.67 5.7 7.34 4 7 C3.67 8.32 3.34 9.64 3 11 C1.72746564 7.35206816 0.67170806 3.8063457 0 0 Z " fill="#1C626E" transform="translate(228,24)"/>
<path d="M0 0 C0.66 0.99 1.32 1.98 2 3 C0.39125 3.2165625 0.39125 3.2165625 -1.25 3.4375 C-3.92861978 3.83929297 -6.40389949 4.28383434 -9 5 C-10.33333333 5.33333333 -11.66666667 5.66666667 -13 6 C-13 5.34 -13 4.68 -13 4 C-13.99 3.67 -14.98 3.34 -16 3 C-14.27318563 2.49193553 -12.54342021 1.99389533 -10.8125 1.5 C-9.84957031 1.2215625 -8.88664063 0.943125 -7.89453125 0.65625 C-5.08808054 0.01996968 -2.85664005 -0.35522985 0 0 Z " fill="#2C7270" transform="translate(180,23)"/>
<path d="M0 0 C3.15473719 0.35052635 4.8233534 0.86519076 7.375 2.8125 C9 5 9 5 8.75 7.25 C8.5025 7.8275 8.255 8.405 8 9 C6.02 9 4.04 9 2 9 C2.66 7.35 3.32 5.7 4 4 C1.525 3.01 1.525 3.01 -1 2 C-0.67 1.34 -0.34 0.68 0 0 Z " fill="#2A7066" transform="translate(146,127)"/>
<path d="M0 0 C1.65 0 3.3 0 5 0 C5.33 0.66 5.66 1.32 6 2 C6.99 2.33 7.98 2.66 9 3 C8.67 4.32 8.34 5.64 8 7 C7.443125 6.855625 6.88625 6.71125 6.3125 6.5625 C3.88615805 5.97230872 1.45093655 5.476571 -1 5 C-0.67 3.35 -0.34 1.7 0 0 Z " fill="#1B6A6C" transform="translate(137,153)"/>
<path d="M0 0 C0.66 1.32 1.32 2.64 2 4 C1.34 4 0.68 4 0 4 C0 4.99 0 5.98 0 7 C0.99 7.33 1.98 7.66 3 8 C0.08517222 8.80967438 -1.46113217 9.21845993 -4.3125 8.0625 C-4.869375 7.711875 -5.42625 7.36125 -6 7 C-5.67 6.01 -5.34 5.02 -5 4 C-4.34 4 -3.68 4 -3 4 C-3 3.01 -3 2.02 -3 1 C-2.01 0.67 -1.02 0.34 0 0 Z " fill="#2C7872" transform="translate(132,38)"/>
<path d="M0 0 C-0.66 1.32 -1.32 2.64 -2 4 C-0.02 4.66 1.96 5.32 4 6 C0.375 9 0.375 9 -3 9 C-3 8.01 -3 7.02 -3 6 C-3.99 6 -4.98 6 -6 6 C-6 5.01 -6 4.02 -6 3 C-6.66 2.67 -7.32 2.34 -8 2 C-2.25 0 -2.25 0 0 0 Z " fill="#28767A" transform="translate(148,150)"/>
<path d="M0 0 C3.3 0.99 6.6 1.98 10 3 C9.360625 3.61875 8.72125 4.2375 8.0625 4.875 C5.96116416 6.82597612 5.96116416 6.82597612 5 9 C3.35 8.67 1.7 8.34 0 8 C0 7.01 0 6.02 0 5 C0.66 5 1.32 5 2 5 C1.34 3.35 0.68 1.7 0 0 Z " fill="#378978" transform="translate(103,46)"/>
<path d="M0 0 C2 4.75 2 4.75 2 7 C-2.31392226 6.5206753 -4.16569547 5.2542015 -7 2 C-2.25 0 -2.25 0 0 0 Z " fill="#27806D" transform="translate(103,46)"/>
<path d="M0 0 C1.65 0 3.3 0 5 0 C5.625 1.875 5.625 1.875 6 4 C5.34 4.66 4.68 5.32 4 6 C1.8359375 5.9765625 1.8359375 5.9765625 -0.625 5.625 C-1.44226563 5.51414063 -2.25953125 5.40328125 -3.1015625 5.2890625 C-3.72804687 5.19367188 -4.35453125 5.09828125 -5 5 C-3.68 4.67 -2.36 4.34 -1 4 C-0.67 2.68 -0.34 1.36 0 0 Z " fill="#1B646E" transform="translate(192,129)"/>
<path d="M0 0 C5.445 1.485 5.445 1.485 11 3 C10.67 3.66 10.34 4.32 10 5 C7.69 5 5.38 5 3 5 C3 6.32 3 7.64 3 9 C1.35 8.67 -0.3 8.34 -2 8 C-1.01 7.67 -0.02 7.34 1 7 C0.67 4.69 0.34 2.38 0 0 Z " fill="#3A7A73" transform="translate(153,129)"/>
<path d="M0 0 C1.32 0 2.64 0 4 0 C4 0.99 4 1.98 4 3 C5.32 3.66 6.64 4.32 8 5 C7.67 5.99 7.34 6.98 7 8 C6.01 7.34 5.02 6.68 4 6 C3.01 6.495 3.01 6.495 2 7 C2 6.34 2 5.68 2 5 C1.34 5 0.68 5 0 5 C-0.5625 3.0625 -0.5625 3.0625 -1 1 C-0.67 0.67 -0.34 0.34 0 0 Z " fill="#1B6660" transform="translate(126,55)"/>
<path d="M0 0 C4.62 1.65 9.24 3.3 14 5 C13.34 5.66 12.68 6.32 12 7 C8.17634026 7 7.12845162 6.77278925 4 5 C3.34 4.67 2.68 4.34 2 4 C2 3.34 2 2.68 2 2 C1.34 2 0.68 2 0 2 C0 1.34 0 0.68 0 0 Z " fill="#2F7F70" transform="translate(112,96)"/>
<path d="M0 0 C-2.5 2 -2.5 2 -5 4 C-5.886875 4.7425 -6.77375 5.485 -7.6875 6.25 C-10 8 -10 8 -12 8 C-11.67 7.01 -11.34 6.02 -11 5 C-10.34 4.67 -9.68 4.34 -9 4 C-9.33 3.34 -9.66 2.68 -10 2 C-6.86358686 -1.13641314 -4.14410883 -1.38136961 0 0 Z " fill="#266F7A" transform="translate(205,81)"/>
<path d="M0 0 C4 0 4 0 5.484375 1.3125 C6.65625 2.875 7.828125 4.4375 9 6 C8.67 6.66 8.34 7.32 8 8 C6.68 7.67 5.36 7.34 4 7 C4 6.34 4 5.68 4 5 C2.68 4.67 1.36 4.34 0 4 C0 2.68 0 1.36 0 0 Z " fill="#166968" transform="translate(161,70)"/>
<path d="M0 0 C4.95 0 9.9 0 15 0 C15 0.33 15 0.66 15 1 C14.25234375 1.01417969 13.5046875 1.02835938 12.734375 1.04296875 C6.40090569 1.18275622 6.40090569 1.18275622 1.3125 4.5625 C0.879375 5.366875 0.44625 6.17125 0 7 C-1.65 6.67 -3.3 6.34 -5 6 C-3.68 5.67 -2.36 5.34 -1 5 C-0.67 3.35 -0.34 1.7 0 0 Z " fill="#45827E" transform="translate(122,153)"/>
<path d="M0 0 C2.33944736 0.28730055 4.6739143 0.61936779 7 1 C6.34 2.98 5.68 4.96 5 7 C2.5625 6.25 2.5625 6.25 0 5 C-0.875 2.9375 -0.875 2.9375 -1 1 C-0.67 0.67 -0.34 0.34 0 0 Z " fill="#0F515A" transform="translate(216,97)"/>
<path d="M0 0 C3.3 1.65 6.6 3.3 10 5 C9.01 5.66 8.02 6.32 7 7 C7 6.34 7 5.68 7 5 C6.236875 5.165 5.47375 5.33 4.6875 5.5 C2 6 2 6 -1 6 C-1.625 4.125 -1.625 4.125 -2 2 C-1.34 1.34 -0.68 0.68 0 0 Z " fill="#378767" transform="translate(42,62)"/>
<path d="M0 0 C1.65 0 3.3 0 5 0 C5 0.66 5 1.32 5 2 C5.66 2 6.32 2 7 2 C7.33 2.66 7.66 3.32 8 4 C10.12576782 4.46651207 10.12576782 4.46651207 12.5625 4.625 C13.38878906 4.69976563 14.21507812 4.77453125 15.06640625 4.8515625 C15.70449219 4.90054687 16.34257812 4.94953125 17 5 C17 5.33 17 5.66 17 6 C12.05 6 7.1 6 2 6 C2.33 4.68 2.66 3.36 3 2 C2.01 1.34 1.02 0.68 0 0 Z " fill="#1B646D" transform="translate(200,19)"/>
<path d="M0 0 C0 1.32 0 2.64 0 4 C-1.65 4.33 -3.3 4.66 -5 5 C-5.33 3.35 -5.66 1.7 -6 0 C-3.50907189 -1.24546405 -2.58919267 -0.7767578 0 0 Z " fill="#24725C" transform="translate(85,42)"/>
<path d="M0 0 C1.134375 0.020625 2.26875 0.04125 3.4375 0.0625 C3.4375 0.7225 3.4375 1.3825 3.4375 2.0625 C1.7875 2.7225 0.1375 3.3825 -1.5625 4.0625 C-1.5625 5.0525 -1.5625 6.0425 -1.5625 7.0625 C-2.5525 6.7325 -3.5425 6.4025 -4.5625 6.0625 C-4.605221 4.39638095 -4.60313832 2.72867115 -4.5625 1.0625 C-3.5625 0.0625 -3.5625 0.0625 0 0 Z " fill="#257A5C" transform="translate(22.5625,138.9375)"/>
<path d="M0 0 C1.5 1.375 1.5 1.375 3 3 C3 3.66 3 4.32 3 5 C2.4225 4.7525 1.845 4.505 1.25 4.25 C0.5075 4.1675 -0.235 4.085 -1 4 C-3.27144074 5.85432087 -3.27144074 5.85432087 -5 8 C-5.99 7.67 -6.98 7.34 -8 7 C-8 6.34 -8 5.68 -8 5 C-6.25 3.7109375 -6.25 3.7109375 -4 2.375 C-3.2575 1.92898437 -2.515 1.48296875 -1.75 1.0234375 C-1.1725 0.68570313 -0.595 0.34796875 0 0 Z " fill="#0E5A62" transform="translate(214,59)"/>
<path d="M0 0 C-1.44781793 3.44428265 -3.27694609 5.36130962 -6.125 7.75 C-7.21167969 8.67039062 -7.21167969 8.67039062 -8.3203125 9.609375 C-8.87460937 10.06828125 -9.42890625 10.5271875 -10 11 C-10.66 10.34 -11.32 9.68 -12 9 C-10.71034824 7.62437146 -9.37310707 6.29233607 -8 5 C-7.34 5 -6.68 5 -6 5 C-6 4.34 -6 3.68 -6 3 C-2.53846154 0 -2.53846154 0 0 0 Z " fill="#3D8D72" transform="translate(47,96)"/>
<path d="M0 0 C1.98 0.66 3.96 1.32 6 2 C5.34 2.66 4.68 3.32 4 4 C3.34 3.67 2.68 3.34 2 3 C1.34 4.32 0.68 5.64 0 7 C-1.32 6.34 -2.64 5.68 -4 5 C-2.68 3.35 -1.36 1.7 0 0 Z " fill="#347377" transform="translate(203,87)"/>
<path d="M0 0 C3.875 1.875 3.875 1.875 5 3 C5.04063832 4.66617115 5.042721 6.33388095 5 8 C3.35 8 1.7 8 0 8 C0.2784375 7.13375 0.2784375 7.13375 0.5625 6.25 C1.04023546 3.79307475 0.75729364 2.35602466 0 0 Z " fill="#206F55" transform="translate(13,127)"/>
<path d="M0 0 C0.33 0.99 0.66 1.98 1 3 C-0.32 4.32 -1.64 5.64 -3 7 C-4.98 6.34 -6.96 5.68 -9 5 C-8.443125 4.731875 -7.88625 4.46375 -7.3125 4.1875 C-4.80287477 2.89877353 -2.40665764 1.47073522 0 0 Z " fill="#0D5D65" transform="translate(162,143)"/>
<path d="M0 0 C0 0.99 0 1.98 0 3 C-0.66 3 -1.32 3 -2 3 C-1.67 3.99 -1.34 4.98 -1 6 C-3.3125 6.625 -3.3125 6.625 -6 7 C-6.99 6.34 -7.98 5.68 -9 5 C-6.03 3.35 -3.06 1.7 0 0 Z " fill="#2C7173" transform="translate(174,87)"/>
<path d="M0 0 C-2.52956528 3.0916909 -5.22454612 3.90931332 -9 5 C-9 3.68 -9 2.36 -9 1 C-5.64919071 -1.10976881 -3.77897651 -1.0497157 0 0 Z " fill="#28776F" transform="translate(150,38)"/>
<path d="M0 0 C3.465 1.98 3.465 1.98 7 4 C5 4.66666667 3 5.33333333 1 6 C1 6.99 1 7.98 1 9 C-0.32 8.01 -1.64 7.02 -3 6 C-2.34 6 -1.68 6 -1 6 C-0.67 4.02 -0.34 2.04 0 0 Z " fill="#28646A" transform="translate(215,93)"/>
<path d="M0 0 C-0.33 0.99 -0.66 1.98 -1 3 C-1.66 2.67 -2.32 2.34 -3 2 C-2.67 3.32 -2.34 4.64 -2 6 C-7.75 5.25 -7.75 5.25 -10 3 C-8.70990357 2.49596232 -7.41786211 1.99690074 -6.125 1.5 C-5.04605469 1.08234375 -5.04605469 1.08234375 -3.9453125 0.65625 C-2 0 -2 0 0 0 Z " fill="#327E70" transform="translate(105,122)"/>
<path d="M0 0 C0.66 0 1.32 0 2 0 C3.33333333 2 4.66666667 4 6 6 C3.69 6.33 1.38 6.66 -1 7 C-1 6.34 -1 5.68 -1 5 C-1.66 4.34 -2.32 3.68 -3 3 C-2.01 2.67 -1.02 2.34 0 2 C0 1.34 0 0.68 0 0 Z " fill="#146C60" transform="translate(106,144)"/>
<path d="M0 0 C0 0.66 0 1.32 0 2 C-0.99 2.33 -1.98 2.66 -3 3 C-3.99 4.485 -3.99 4.485 -5 6 C-7.475 5.01 -7.475 5.01 -10 4 C-7.25346796 1.25346796 -3.91404908 0 0 0 Z " fill="#2F7C6E" transform="translate(92,127)"/>
<path d="M0 0 C0.99 0 1.98 0 3 0 C3 0.66 3 1.32 3 2 C3.94875 1.814375 4.8975 1.62875 5.875 1.4375 C9 1 9 1 11 2 C10.34 3.32 9.68 4.64 9 6 C4.545 4.02 4.545 4.02 0 2 C0 1.34 0 0.68 0 0 Z " fill="#327775" transform="translate(162,75)"/>
<path d="M0 0 C1.98 0 3.96 0 6 0 C5.01 1.98 4.02 3.96 3 6 C1.68 5.67 0.36 5.34 -1 5 C-0.67 3.35 -0.34 1.7 0 0 Z " fill="#2A7D6D" transform="translate(109,50)"/>
<path d="M0 0 C3 0 3 0 4.5625 1.375 C5.036875 1.91125 5.51125 2.4475 6 3 C6.66 3.66 7.32 4.32 8 5 C6.02 5.33 4.04 5.66 2 6 C1.67 5.34 1.34 4.68 1 4 C0.67 4.66 0.34 5.32 0 6 C-0.66 5.67 -1.32 5.34 -2 5 C-1.34 3.35 -0.68 1.7 0 0 Z " fill="#186A66" transform="translate(164,27)"/>
<path d="M0 0 C0.268125 0.598125 0.53625 1.19625 0.8125 1.8125 C1.99846146 3.99716585 3.1807485 5.33235279 5 7 C5.66 7.66 6.32 8.32 7 9 C4.07175348 9.97608217 2.04386724 10.08226668 -1 10 C-1 9.34 -1 8.68 -1 8 C-0.34 7.67 0.32 7.34 1 7 C0.67 4.69 0.34 2.38 0 0 Z " fill="#3C8268" transform="translate(18,130)"/>
<path d="M0 0 C2.625 0.9375 2.625 0.9375 5 2 C5 2.99 5 3.98 5 5 C1.7 4.34 -1.6 3.68 -5 3 C-2 1 -2 1 0 0 Z " fill="#35786D" transform="translate(143,130)"/>
<path d="M0 0 C0 0.66 0 1.32 0 2 C-4.41062136 3.0257259 -6.92630576 3.03684712 -11 1 C-11 0.67 -11 0.34 -11 0 C-3.375 -1.125 -3.375 -1.125 0 0 Z " fill="#31726F" transform="translate(166,106)"/>
<path d="M0 0 C3.465 1.485 3.465 1.485 7 3 C6.67 3.99 6.34 4.98 6 6 C5.01 6.33 4.02 6.66 3 7 C0 2.25 0 2.25 0 0 Z " fill="#307271" transform="translate(172,73)"/>
<path d="M0 0 C0.66 0.33 1.32 0.66 2 1 C1.34 2.65 0.68 4.3 0 6 C-2.31 5.01 -4.62 4.02 -7 3 C-4.66785852 1.79371992 -2.50357861 0.8345262 0 0 Z " fill="#277C61" transform="translate(24,115)"/>
<path d="M0 0 C3.465 1.485 3.465 1.485 7 3 C5.68 4.32 4.36 5.64 3 7 C0 3.375 0 3.375 0 0 Z " fill="#36837D" transform="translate(113,148)"/>
<path d="M0 0 C0.66 0.66 1.32 1.32 2 2 C1.34 2 0.68 2 0 2 C0.33 2.99 0.66 3.98 1 5 C-0.96466413 6.06775224 -2.96855359 7.06553465 -5 8 C-5.66 7.67 -6.32 7.34 -7 7 C-4.69 4.69 -2.38 2.38 0 0 Z " fill="#3E8770" transform="translate(27,105)"/>
<path d="M0 0 C2.97 0.495 2.97 0.495 6 1 C5.67 2.32 5.34 3.64 5 5 C3.35 5.33 1.7 5.66 0 6 C0 4.02 0 2.04 0 0 Z " fill="#227755" transform="translate(58,73)"/>
<path d="M0 0 C0.99 0 1.98 0 3 0 C3.33 1.65 3.66 3.3 4 5 C2.35 5.66 0.7 6.32 -1 7 C-0.67 4.69 -0.34 2.38 0 0 Z " fill="#125963" transform="translate(217,64)"/>
<path d="M0 0 C0 0.66 0 1.32 0 2 C0.99 2 1.98 2 3 2 C2.67 2.66 2.34 3.32 2 4 C-0.64860427 4.59355614 -3.29197322 4.74209269 -6 5 C-5.6875 3.0625 -5.6875 3.0625 -5 1 C-2 0 -2 0 0 0 Z " fill="#1B6769" transform="translate(180,25)"/>
<path d="M0 0 C0.66 0.33 1.32 0.66 2 1 C2 1.66 2 2.32 2 3 C2.99 3 3.98 3 5 3 C5 3.66 5 4.32 5 5 C-0.75 4.25 -0.75 4.25 -3 2 C-2.01 1.34 -1.02 0.68 0 0 Z " fill="#266365" transform="translate(182,128)"/>
<path d="M0 0 C2.97 0 5.94 0 9 0 C8.01 0.33 7.02 0.66 6 1 C6 1.66 6 2.32 6 3 C4.35 3.33 2.7 3.66 1 4 C0.67 2.68 0.34 1.36 0 0 Z " fill="#226464" transform="translate(184,121)"/>
<path d="M0 0 C0.66 0.33 1.32 0.66 2 1 C1.01 2.485 1.01 2.485 0 4 C0.33 4.66 0.66 5.32 1 6 C0.34 6.66 -0.32 7.32 -1 8 C-1.433125 7.0409375 -1.433125 7.0409375 -1.875 6.0625 C-2.82823451 3.84793921 -2.82823451 3.84793921 -5 3 C-2.625 1.4375 -2.625 1.4375 0 0 Z " fill="#25726F" transform="translate(158,96)"/>
<path d="M0 0 C1.65 0 3.3 0 5 0 C3.02 0.99 3.02 0.99 1 2 C1.33 3.65 1.66 5.3 2 7 C0.68 6.67 -0.64 6.34 -2 6 C-2 5.01 -2 4.02 -2 3 C-1.34 3 -0.68 3 0 3 C0 2.01 0 1.02 0 0 Z " fill="#357C65" transform="translate(78,40)"/>
<path d="M0 0 C2.31 0.33 4.62 0.66 7 1 C6.34 2.65 5.68 4.3 5 6 C4.67 5.01 4.34 4.02 4 3 C1.98491642 2.26676204 1.98491642 2.26676204 0 2 C0 1.34 0 0.68 0 0 Z " fill="#45817A" transform="translate(166,133)"/>
<path d="M0 0 C1.32 0 2.64 0 4 0 C3.67 0.99 3.34 1.98 3 3 C-0.5625 4.1875 -0.5625 4.1875 -4 5 C-3.67 4.01 -3.34 3.02 -3 2 C-2.01 2 -1.02 2 0 2 C0 1.34 0 0.68 0 0 Z " fill="#0E595D" transform="translate(190,122)"/>
<path d="M0 0 C2.1385485 2.1385485 2.42655063 3.13275314 3 6 C0.36 5.67 -2.28 5.34 -5 5 C-3.68 4.67 -2.36 4.34 -1 4 C-0.67 2.68 -0.34 1.36 0 0 Z " fill="#367478" transform="translate(192,129)"/>
<path d="M0 0 C0 0.99 0 1.98 0 3 C-2.31 3 -4.62 3 -7 3 C-7.33 2.34 -7.66 1.68 -8 1 C-5.10765685 0.17361624 -3.11257569 0 0 0 Z " fill="#387F80" transform="translate(187,21)"/>
<path d="M0 0 C1.65 0.33 3.3 0.66 5 1 C5 1.66 5 2.32 5 3 C4.34 3 3.68 3 3 3 C2.67 3.99 2.34 4.98 2 6 C1.01 5.34 0.02 4.68 -1 4 C-0.67 2.68 -0.34 1.36 0 0 Z " fill="#16696D" transform="translate(152,147)"/>
<path d="M0 0 C1.32 0.66 2.64 1.32 4 2 C3.34 3.32 2.68 4.64 2 6 C1.34 6 0.68 6 0 6 C-0.38218767 4.34385343 -0.71395102 2.67542976 -1 1 C-0.67 0.67 -0.34 0.34 0 0 Z " fill="#0B4D5E" transform="translate(234,110)"/>
<path d="M0 0 C0.33 1.32 0.66 2.64 1 4 C-2.01031744 4.93423645 -2.86650268 5.04449911 -6 4 C-4.02 2.68 -2.04 1.36 0 0 Z " fill="#237176" transform="translate(199,70)"/>
<path d="M0 0 C1.32 0 2.64 0 4 0 C4 1.32 4 2.64 4 4 C2.35 3.67 0.7 3.34 -1 3 C-0.67 2.01 -0.34 1.02 0 0 Z " fill="#227167" transform="translate(126,55)"/>
<path d="M0 0 C0 0.99 0 1.98 0 3 C0.66 3.66 1.32 4.32 2 5 C1.01 5.495 1.01 5.495 0 6 C-2.625 4.5625 -2.625 4.5625 -5 3 C-2.25 0 -2.25 0 0 0 Z " fill="#40847A" transform="translate(123,43)"/>
<path d="M0 0 C3.3 0 6.6 0 10 0 C9.01 1.485 9.01 1.485 8 3 C7.01 3 6.02 3 5 3 C5 2.34 5 1.68 5 1 C3.35 1 1.7 1 0 1 C0 0.67 0 0.34 0 0 Z " fill="#09535C" transform="translate(221,127)"/>
<path d="M0 0 C0.99 0.33 1.98 0.66 3 1 C3 2.98 3 4.96 3 7 C2.01 7 1.02 7 0 7 C0.33 5.35 0.66 3.7 1 2 C0.01 1.67 -0.98 1.34 -2 1 C-1.34 0.67 -0.68 0.34 0 0 Z " fill="#2B7D72" transform="translate(108,120)"/>
<path d="M0 0 C2.31 0.33 4.62 0.66 7 1 C6.67 2.32 6.34 3.64 6 5 C5.34 4.34 4.68 3.68 4 3 C1.42938689 2.35232207 1.42938689 2.35232207 -1 2 C-0.67 1.34 -0.34 0.68 0 0 Z " fill="#084854" transform="translate(237,116)"/>
<path d="M0 0 C0.33 0.66 0.66 1.32 1 2 C0.34 2 -0.32 2 -1 2 C-1 2.66 -1 3.32 -1 4 C-0.01 4.33 0.98 4.66 2 5 C1.01 5.495 1.01 5.495 0 6 C-2.625 5.0625 -2.625 5.0625 -5 4 C-3.36587557 2.29159719 -2.13093906 1.06546953 0 0 Z " fill="#43847E" transform="translate(152,100)"/>
<path d="M0 0 C0.33 0.99 0.66 1.98 1 3 C1.99 2.67 2.98 2.34 4 2 C3.67 3.65 3.34 5.3 3 7 C1.68 6.67 0.36 6.34 -1 6 C-0.67 4.02 -0.34 2.04 0 0 Z " fill="#217458" transform="translate(33,100)"/>
<path d="M0 0 C0 0.33 0 0.66 0 1 C-2.31 1 -4.62 1 -7 1 C-7.33 1.99 -7.66 2.98 -8 4 C-9.32 3.67 -10.64 3.34 -12 3 C-8.2391768 -0.7608232 -5.0273023 -0.25136512 0 0 Z " fill="#438286" transform="translate(207,18)"/>
</svg>
